# Blender v2.79 (sub 0) OBJ File: ''
# www.blender.org
mtllib Resource.mtl
o Icosphere_Icosphere.001
v 0.000000 -1.000000 0.000000
v 0.723600 -0.447215 0.525720
v -0.276385 -0.447215 0.850640
v -0.894425 -0.447215 0.000000
v -0.276385 -0.447215 -0.850640
v 0.723600 -0.447215 -0.525720
v 0.276385 0.447215 0.850640
v -0.723600 0.447215 0.525720
v -0.723600 0.447215 -0.525720
v 0.276385 0.447215 -0.850640
v 0.894425 0.447215 0.000000
v 0.000000 1.000000 0.000000
vt 0.675012 0.301892
vt 0.703739 0.596296
vt 0.530690 0.546537
vt 0.989910 0.524948
vt 0.425642 0.428103
vt 0.395589 0.276873
vt 0.430658 0.000099
vt 0.815923 0.868130
vt 0.559429 0.724292
vt 0.270561 0.660621
vt 0.279080 0.380211
vt 0.238338 0.216931
vt 0.046021 0.000099
vt 0.454423 0.999901
vt 0.000099 0.381986
vn 0.1876 -0.7947 0.5774
vn 0.6071 -0.7947 0.0000
vn -0.4911 -0.7947 0.3568
vn -0.4911 -0.7947 -0.3568
vn 0.1876 -0.7947 -0.5774
vn 0.9822 -0.1876 0.0000
vn 0.3035 -0.1876 0.9342
vn -0.7946 -0.1876 0.5774
vn -0.7946 -0.1876 -0.5774
vn 0.3035 -0.1876 -0.9342
vn 0.7946 0.1876 0.5774
vn -0.3035 0.1876 0.9342
vn -0.9822 0.1876 0.0000
vn -0.3035 0.1876 -0.9342
vn 0.7946 0.1876 -0.5774
vn 0.4911 0.7947 0.3568
vn -0.1876 0.7947 0.5774
vn -0.6071 0.7947 0.0000
vn -0.1876 0.7947 -0.5774
vn 0.4911 0.7947 -0.3568
usemtl Material.001
s off
f 1/1/1 2/2/1 3/3/1
f 2/2/2 1/1/2 6/4/2
f 1/1/3 3/3/3 4/5/3
f 1/1/4 4/5/4 5/6/4
f 1/1/5 5/6/5 6/7/5
f 2/2/6 6/4/6 11/8/6
f 3/3/7 2/2/7 7/9/7
f 4/5/8 3/3/8 8/10/8
f 5/6/9 4/5/9 9/11/9
f 6/7/10 5/6/10 10/12/10
f 2/2/11 11/8/11 7/9/11
f 3/3/12 7/9/12 8/10/12
f 4/5/13 8/10/13 9/11/13
f 5/6/14 9/11/14 10/12/14
f 6/7/15 10/12/15 11/13/15
f 7/9/16 11/8/16 12/14/16
f 8/10/17 7/9/17 12/14/17
f 9/11/18 8/10/18 12/15/18
f 10/12/19 9/11/19 12/15/19
f 11/13/20 10/12/20 12/15/20
