# Blender v2.79 (sub 0) OBJ File: 'Topping insert.blend'
# www.blender.org
mtllib Topping.mtl
o Topping
v -1.000000 -0.000200 0.998461
v -1.000000 -0.000200 -1.001539
v 1.000000 -0.000200 -1.001539
v 1.000000 -0.000200 0.998461
v -1.000000 1.404748 -0.301542
v -0.698632 1.183548 -0.096864
v -0.698632 0.221000 0.793784
v -0.698632 0.087573 0.735767
v -0.698632 1.050121 -0.154883
v 1.000000 1.404748 -0.301542
v 0.698632 0.221000 0.793784
v 0.698632 1.183548 -0.096864
v 0.698632 1.050121 -0.154883
v 0.698632 0.087573 0.735767
v -0.380578 0.726046 -0.639697
v -0.280272 0.509299 -0.747688
v 0.304351 0.726046 -0.639697
v 0.204046 0.509299 -0.747688
v -0.038113 0.419519 -0.792419
v -0.280272 0.942793 -0.531706
v 0.204046 0.942793 -0.531706
v -0.038113 1.032572 -0.486974
v -0.380578 0.664778 -0.530291
v -0.280272 0.448031 -0.638282
v 0.304351 0.664778 -0.530291
v 0.204046 0.448031 -0.638282
v -0.038113 0.358252 -0.683013
v -0.280272 0.881525 -0.422299
v 0.204046 0.881525 -0.422299
v -0.038113 0.971305 -0.377568
v -0.038007 0.662593 -0.530304
v -0.356906 0.844237 -0.580810
v -0.355610 0.782489 -0.471643
v -0.170162 1.011385 -0.497531
v -0.169625 0.948957 -0.388702
v 0.093935 1.011385 -0.497531
v 0.093398 0.948957 -0.388702
v 0.280679 0.844237 -0.580810
v 0.279383 0.782489 -0.471643
v 0.280679 0.607854 -0.698584
v 0.279383 0.547068 -0.588938
v 0.093935 0.440707 -0.781863
v 0.093398 0.380600 -0.671879
v -0.170162 0.440707 -0.781863
v -0.169625 0.380600 -0.671879
v -0.356906 0.607854 -0.698584
v -0.355610 0.547068 -0.588938
vt 0.312660 0.642940
vt 0.312660 0.293305
vt 0.662418 0.293305
vt 0.662418 0.642940
vt 0.001275 0.137341
vt 0.312660 0.019750
vt 0.360703 0.936895
vt 0.360703 0.692182
vt 0.378626 0.712829
vt 0.378626 0.909054
vt 0.461878 0.212750
vt 0.482024 0.215700
vt 0.973807 0.137342
vt 0.662418 0.019751
vt 0.614372 0.692182
vt 0.614372 0.936895
vt 0.662418 0.980249
vt 0.312660 0.980249
vt 0.595098 0.909054
vt 0.595098 0.712829
vt 0.461878 0.111941
vt 0.482024 0.108991
vt 0.442658 0.162345
vt 0.444834 0.146381
vt 0.454188 0.133498
vt 0.482024 0.163230
vt 0.509860 0.191193
vt 0.497429 0.200886
vt 0.482024 0.203142
vt 0.454188 0.191193
vt 0.444834 0.178309
vt 0.466620 0.123805
vt 0.482024 0.121549
vt 0.509860 0.133498
vt 0.519214 0.146381
vt 0.521391 0.162345
vt 0.466620 0.200886
vt 0.519214 0.178310
vt 0.497429 0.123805
vt 0.530662 0.141467
vt 0.518429 0.124618
vt 0.502171 0.111941
vt 0.433386 0.141467
vt 0.445619 0.124618
vt 0.430540 0.162345
vt 0.433386 0.183224
vt 0.445619 0.200073
vt 0.533509 0.162345
vt 0.530662 0.183224
vt 0.518429 0.200073
vt 0.502171 0.212750
vn 0.0000 -1.0000 -0.0000
vn -1.0000 0.0000 0.0000
vn 1.0000 0.0000 0.0000
vn 0.0000 0.4459 -0.8951
vn 0.0000 0.6792 0.7340
vn 0.0000 0.3988 -0.9171
vn 0.0000 -0.3988 0.9171
vn 0.0026 0.4450 -0.8955
vn -0.0011 0.4483 -0.8939
vn 0.0026 0.4469 -0.8946
vn 0.0011 0.4436 -0.8962
vn -0.0026 0.4450 -0.8955
vn 0.0011 0.4483 -0.8939
vn -0.0026 0.4469 -0.8946
vn -0.0011 0.4436 -0.8962
vn -0.0000 0.4460 -0.8951
vn 0.3847 0.8081 0.4461
vn 0.7096 0.6175 0.3394
vn 0.7040 0.6223 0.3421
vn 0.3801 0.8097 0.4470
vn -0.9261 0.3320 0.1795
vn -0.7096 0.6175 0.3394
vn -0.7040 0.6223 0.3421
vn -0.9215 0.3415 0.1848
vn -0.3800 -0.8043 -0.4568
vn -0.7038 -0.6171 -0.3520
vn -0.7094 -0.6123 -0.3492
vn -0.3845 -0.8027 -0.4559
vn 0.9213 -0.3364 -0.1948
vn 0.7038 -0.6171 -0.3520
vn 0.7094 -0.6123 -0.3492
vn 0.9259 -0.3269 -0.1895
vn -0.3847 0.8081 0.4461
vn -0.0000 0.8752 0.4837
vn -0.3801 0.8097 0.4470
vn 0.9261 0.3320 0.1795
vn 1.0000 -0.0024 -0.0077
vn 1.0000 0.0074 -0.0023
vn 0.9215 0.3415 0.1848
vn 0.3800 -0.8043 -0.4568
vn -0.0000 -0.8698 -0.4934
vn 0.3845 -0.8027 -0.4559
vn -0.9213 -0.3364 -0.1948
vn -1.0000 -0.0024 -0.0077
vn -1.0000 0.0074 -0.0023
vn -0.9259 -0.3269 -0.1895
usemtl Material.001
s off
f 1/1/1 2/2/1 3/3/1 4/4/1
f 2/2/2 1/5/2 5/6/2
f 6/7/3 7/8/3 8/9/3 9/10/3
f 2/2/4 44/11/4 19/12/4
f 4/13/3 3/3/3 10/14/3
f 11/15/5 7/8/5 1/1/5 4/4/5
f 6/7/5 12/16/5 10/17/5 5/18/5
f 7/8/5 6/7/5 5/18/5 1/1/5
f 12/16/5 11/15/5 4/4/5 10/17/5
f 13/19/5 9/10/5 8/9/5 14/20/5
f 7/8/6 11/15/6 14/20/6 8/9/6
f 11/15/2 12/16/2 13/19/2 14/20/2
f 12/16/7 6/7/7 9/10/7 13/19/7
f 34/21/4 5/6/4 22/22/4
f 23/23/8 33/24/8 28/25/8 31/26/8
f 26/27/9 43/28/9 27/29/9 31/26/9
f 24/30/10 47/31/10 23/23/10 31/26/10
f 28/25/11 35/32/11 30/33/11 31/26/11
f 29/34/12 39/35/12 25/36/12 31/26/12
f 27/29/13 45/37/13 24/30/13 31/26/13
f 25/36/14 41/38/14 26/27/14 31/26/14
f 30/33/15 37/39/15 29/34/15 31/26/15
f 10/14/16 38/40/16 21/41/16
f 10/14/16 36/42/16 22/22/16
f 32/43/16 5/6/16 20/44/16
f 5/6/16 10/14/16 22/22/16
f 2/2/16 5/6/16 15/45/16
f 2/2/16 46/46/16 16/47/16
f 17/48/16 10/14/16 3/3/16
f 40/49/16 3/3/16 18/50/16
f 3/3/16 2/2/16 19/12/16
f 42/51/4 3/3/4 19/12/4
f 2/2/16 16/47/16 44/11/16
f 34/21/16 20/44/16 5/6/16
f 10/14/16 17/48/16 38/40/16
f 10/14/16 21/41/16 36/42/16
f 32/43/16 15/45/16 5/6/16
f 2/2/16 15/45/16 46/46/16
f 40/49/16 17/48/16 3/3/16
f 42/51/16 18/50/16 3/3/16
s 1
f 44/11/17 16/47/18 24/30/19 45/37/20
f 40/49/21 18/50/22 26/27/23 41/38/24
f 36/42/25 21/41/26 29/34/27 37/39/28
f 32/43/29 20/44/30 28/25/31 33/24/32
f 42/51/33 19/12/34 27/29/34 43/28/35
f 46/46/36 15/45/37 23/23/38 47/31/39
f 34/21/40 22/22/41 30/33/41 35/32/42
f 38/40/43 17/48/44 25/36/45 39/35/46
f 15/45/37 32/43/29 33/24/32 23/23/38
f 20/44/30 34/21/40 35/32/42 28/25/31
f 22/22/41 36/42/25 37/39/28 30/33/41
f 21/41/26 38/40/43 39/35/46 29/34/27
f 17/48/44 40/49/21 41/38/24 25/36/45
f 18/50/22 42/51/33 43/28/35 26/27/23
f 19/12/34 44/11/17 45/37/20 27/29/34
f 16/47/18 46/46/36 47/31/39 24/30/19
